<svg width="689" height="238" viewBox="0 0 689 238" fill="none" xmlns="http://www.w3.org/2000/svg">
    <path fill-rule="evenodd" clip-rule="evenodd" d="M0 237.955L4.36103 220.455L19.6502 219.704L30.3373 213.14L41.5101 212.779L49.6521 203.128L56.8132 178.036L61.4039 169.058L73.6643 187.785L83.6355 190.634L90.9314 185.198L99.7347 161.233L124.975 209.823L135.367 188.895L147.281 199.399L153.703 183.384L154.956 175.7L164.628 167.853L169.622 157.189L175.143 172.085L174.229 181.866L179.322 183.312L183.273 178.958L193.342 110.03L203.185 200.417L211.734 187.533V180.174L219.042 172.571L222.463 166.743L228.759 157.977L243.728 167.117L251.179 172.085L257.195 168.869L267.686 183.323L282.948 154.915L287.413 170.407L296.982 181.124L306.258 177.691L310.591 170.405L317.526 167.113L318.4 160.857L326.314 145.474L337.933 149.843L344.186 138.666L357.409 225.86L368.767 207.924L383.736 206.67L401.672 219.399L408.641 169.745L417.382 172.54L421.496 166.704L423.814 168.568L428.162 167.999L430.647 170.51L437.55 172.148L437.673 177.704L445.924 181.226L456.235 180.447L456.777 171.147L459.37 134.606L467.113 135.236L476.173 143.62L498.842 126.475L508.615 108.898L512.962 114.464L514.605 119.984L522.57 126.308L536.104 114.603L560.826 78L568.003 91.6411L588.287 113.919L595.927 104.101L604.234 99.5437L618.401 106.371L627.337 99.785L642.824 108.677L650.069 91.1222L664.147 91.5984L666.671 95.6618L689 85.9027V237.955H57.0295H0Z" fill="url(#paint0_linear)"/>
    <path d="M103.699 1V201" stroke="#CFE8FB" stroke-linecap="square"/>
    <path d="M219.699 1V201" stroke="#CFE8FB" stroke-linecap="square"/>
    <path d="M339.699 1V201" stroke="#CFE8FB" stroke-linecap="square"/>
    <path d="M456.688 1V201" stroke="#CFE8FB" stroke-linecap="square"/>
    <path d="M578.688 1V201" stroke="#CFE8FB" stroke-linecap="square"/>
    <path d="M39.209 12.1104C39.209 13.4229 38.9036 14.4277 38.293 15.125C37.6868 15.8223 36.8073 16.1709 35.6543 16.1709C35.1393 16.1709 34.6631 16.082 34.2256 15.9043V13.833C34.6038 14.1201 35.0277 14.2637 35.4971 14.2637C36.5042 14.2637 37.0078 13.5163 37.0078 12.0215V6.19727H39.209V12.1104ZM46.8311 16H44.7871V14.9951H44.7598C44.2904 15.779 43.5954 16.1709 42.6748 16.1709C41.9958 16.1709 41.4603 15.9795 41.0684 15.5967C40.681 15.2093 40.4873 14.6943 40.4873 14.0518C40.4873 12.6937 41.2917 11.9098 42.9004 11.7002L44.8008 11.4473C44.8008 10.6816 44.3861 10.2988 43.5566 10.2988C42.7227 10.2988 41.9297 10.5472 41.1777 11.0439V9.41699C41.4785 9.26204 41.8887 9.12533 42.4082 9.00684C42.9323 8.88835 43.4085 8.8291 43.8369 8.8291C45.833 8.8291 46.8311 9.82487 46.8311 11.8164V16ZM44.8008 13.1562V12.6846L43.5293 12.8486C42.8275 12.9398 42.4766 13.2565 42.4766 13.7988C42.4766 14.0449 42.5609 14.2477 42.7295 14.4072C42.9027 14.5622 43.1351 14.6396 43.4268 14.6396C43.8324 14.6396 44.1628 14.5007 44.418 14.2227C44.6732 13.9401 44.8008 13.5846 44.8008 13.1562ZM55.3008 16H53.1475V12.1104C53.1475 11.0257 52.7601 10.4834 51.9854 10.4834C51.6117 10.4834 51.304 10.627 51.0625 10.9141C50.821 11.2012 50.7002 11.5658 50.7002 12.0078V16H48.54V9H50.7002V10.1074H50.7275C51.2425 9.25521 51.9922 8.8291 52.9766 8.8291C54.526 8.8291 55.3008 9.79069 55.3008 11.7139V16Z" fill="black"/>
    <path d="M156.788 7.99512H153.329V10.4014H156.508V12.1924H153.329V16H151.121V6.19727H156.788V7.99512ZM164.485 13.1152H159.919C159.992 14.1315 160.632 14.6396 161.84 14.6396C162.61 14.6396 163.287 14.4574 163.87 14.0928V15.6514C163.223 15.9977 162.382 16.1709 161.348 16.1709C160.217 16.1709 159.34 15.8587 158.716 15.2344C158.091 14.6055 157.779 13.7305 157.779 12.6094C157.779 11.4473 158.117 10.5267 158.791 9.84766C159.465 9.16862 160.295 8.8291 161.279 8.8291C162.3 8.8291 163.089 9.13216 163.645 9.73828C164.205 10.3444 164.485 11.167 164.485 12.2061V13.1152ZM162.482 11.7891C162.482 10.7865 162.077 10.2852 161.266 10.2852C160.919 10.2852 160.618 10.4287 160.363 10.7158C160.113 11.0029 159.96 11.3607 159.905 11.7891H162.482ZM167.958 15.1865H167.931V16H165.771V5.63672H167.931V10.0527H167.958C168.491 9.23698 169.25 8.8291 170.234 8.8291C171.137 8.8291 171.832 9.139 172.319 9.75879C172.807 10.3786 173.051 11.2262 173.051 12.3018C173.051 13.4684 172.766 14.4049 172.196 15.1113C171.627 15.8177 170.866 16.1709 169.913 16.1709C169.052 16.1709 168.4 15.8428 167.958 15.1865ZM167.896 12.2334V12.9512C167.896 13.4023 168.026 13.776 168.286 14.0723C168.546 14.3685 168.879 14.5166 169.284 14.5166C169.776 14.5166 170.157 14.3275 170.426 13.9492C170.699 13.5664 170.836 13.0264 170.836 12.3291C170.836 11.7503 170.711 11.2992 170.46 10.9756C170.214 10.6475 169.861 10.4834 169.4 10.4834C168.967 10.4834 168.607 10.6452 168.32 10.9688C168.038 11.2923 167.896 11.7139 167.896 12.2334Z" fill="black"/>
    <path d="M278.291 16H276.11V10.1348C276.11 9.5013 276.138 8.80176 276.192 8.03613H276.138C276.024 8.6377 275.921 9.07064 275.83 9.33496L273.533 16H271.729L269.391 9.40332C269.327 9.22559 269.224 8.76986 269.083 8.03613H269.021C269.081 9.00228 269.11 9.84993 269.11 10.5791V16H267.121V6.19727H270.354L272.357 12.0078C272.517 12.4727 272.633 12.9398 272.706 13.4092H272.747C272.87 12.8669 273 12.3952 273.137 11.9941L275.14 6.19727H278.291V16ZM286.132 16H284.088V14.9951H284.061C283.591 15.779 282.896 16.1709 281.976 16.1709C281.297 16.1709 280.761 15.9795 280.369 15.5967C279.982 15.2093 279.788 14.6943 279.788 14.0518C279.788 12.6937 280.592 11.9098 282.201 11.7002L284.102 11.4473C284.102 10.6816 283.687 10.2988 282.857 10.2988C282.023 10.2988 281.23 10.5472 280.479 11.0439V9.41699C280.779 9.26204 281.189 9.12533 281.709 9.00684C282.233 8.88835 282.709 8.8291 283.138 8.8291C285.134 8.8291 286.132 9.82487 286.132 11.8164V16ZM284.102 13.1562V12.6846L282.83 12.8486C282.128 12.9398 281.777 13.2565 281.777 13.7988C281.777 14.0449 281.862 14.2477 282.03 14.4072C282.203 14.5622 282.436 14.6396 282.728 14.6396C283.133 14.6396 283.464 14.5007 283.719 14.2227C283.974 13.9401 284.102 13.5846 284.102 13.1562ZM292.407 10.9482C292.147 10.807 291.844 10.7363 291.498 10.7363C291.029 10.7363 290.662 10.9095 290.397 11.2559C290.133 11.5977 290.001 12.0648 290.001 12.6572V16H287.841V9H290.001V10.2988H290.028C290.37 9.35091 290.985 8.87695 291.874 8.87695C292.102 8.87695 292.28 8.9043 292.407 8.95898V10.9482Z" fill="black"/>
    <path d="M395.741 16H393.335L392.638 13.8193H389.151L388.461 16H386.068L389.637 6.19727H392.255L395.741 16ZM392.132 12.124L391.079 8.8291C391.002 8.58301 390.947 8.28906 390.915 7.94727H390.86C390.838 8.23438 390.781 8.51921 390.689 8.80176L389.623 12.124H392.132ZM398.94 15.1865H398.913V19.2197H396.753V9H398.913V10.0527H398.94C399.474 9.23698 400.223 8.8291 401.189 8.8291C402.096 8.8291 402.796 9.14128 403.288 9.76562C403.785 10.3854 404.033 11.2308 404.033 12.3018C404.033 13.4684 403.744 14.4049 403.165 15.1113C402.591 15.8177 401.825 16.1709 400.868 16.1709C400.025 16.1709 399.382 15.8428 398.94 15.1865ZM398.879 12.3154V12.876C398.879 13.359 399.007 13.7533 399.262 14.0586C399.517 14.3639 399.852 14.5166 400.267 14.5166C400.759 14.5166 401.139 14.3275 401.408 13.9492C401.682 13.5664 401.818 13.0264 401.818 12.3291C401.818 11.0986 401.34 10.4834 400.383 10.4834C399.941 10.4834 399.578 10.652 399.296 10.9893C399.018 11.3219 398.879 11.764 398.879 12.3154ZM410.001 10.9482C409.741 10.807 409.438 10.7363 409.092 10.7363C408.622 10.7363 408.256 10.9095 407.991 11.2559C407.727 11.5977 407.595 12.0648 407.595 12.6572V16H405.435V9H407.595V10.2988H407.622C407.964 9.35091 408.579 8.87695 409.468 8.87695C409.696 8.87695 409.873 8.9043 410.001 8.95898V10.9482Z" fill="black"/>
    <path d="M515.291 16H513.11V10.1348C513.11 9.5013 513.138 8.80176 513.192 8.03613H513.138C513.024 8.6377 512.921 9.07064 512.83 9.33496L510.533 16H508.729L506.391 9.40332C506.327 9.22559 506.224 8.76986 506.083 8.03613H506.021C506.081 9.00228 506.11 9.84993 506.11 10.5791V16H504.121V6.19727H507.354L509.357 12.0078C509.517 12.4727 509.633 12.9398 509.706 13.4092H509.747C509.87 12.8669 510 12.3952 510.137 11.9941L512.14 6.19727H515.291V16ZM523.132 16H521.088V14.9951H521.061C520.591 15.779 519.896 16.1709 518.976 16.1709C518.297 16.1709 517.761 15.9795 517.369 15.5967C516.982 15.2093 516.788 14.6943 516.788 14.0518C516.788 12.6937 517.592 11.9098 519.201 11.7002L521.102 11.4473C521.102 10.6816 520.687 10.2988 519.857 10.2988C519.023 10.2988 518.23 10.5472 517.479 11.0439V9.41699C517.779 9.26204 518.189 9.12533 518.709 9.00684C519.233 8.88835 519.709 8.8291 520.138 8.8291C522.134 8.8291 523.132 9.82487 523.132 11.8164V16ZM521.102 13.1562V12.6846L519.83 12.8486C519.128 12.9398 518.777 13.2565 518.777 13.7988C518.777 14.0449 518.862 14.2477 519.03 14.4072C519.203 14.5622 519.436 14.6396 519.728 14.6396C520.133 14.6396 520.464 14.5007 520.719 14.2227C520.974 13.9401 521.102 13.5846 521.102 13.1562ZM531.506 9L528.662 16.5605C527.979 18.3789 526.949 19.2881 525.572 19.2881C525.048 19.2881 524.618 19.2288 524.28 19.1104V17.3877C524.567 17.5563 524.88 17.6406 525.217 17.6406C525.773 17.6406 526.16 17.3786 526.379 16.8545L526.748 15.9863L523.904 9H526.297L527.603 13.2588C527.685 13.5231 527.748 13.8353 527.794 14.1953H527.821C527.862 13.931 527.938 13.6234 528.047 13.2725L529.366 9H531.506Z" fill="black"/>
    <path d="M630.209 12.1104C630.209 13.4229 629.904 14.4277 629.293 15.125C628.687 15.8223 627.807 16.1709 626.654 16.1709C626.139 16.1709 625.663 16.082 625.226 15.9043V13.833C625.604 14.1201 626.028 14.2637 626.497 14.2637C627.504 14.2637 628.008 13.5163 628.008 12.0215V6.19727H630.209V12.1104ZM638.795 16H636.642V14.9336H636.607C636.074 15.7585 635.361 16.1709 634.468 16.1709C632.845 16.1709 632.034 15.1888 632.034 13.2246V9H634.188V13.0332C634.188 14.0221 634.579 14.5166 635.363 14.5166C635.751 14.5166 636.061 14.3822 636.293 14.1133C636.525 13.8398 636.642 13.4707 636.642 13.0059V9H638.795V16ZM647.381 16H645.228V12.1104C645.228 11.0257 644.84 10.4834 644.065 10.4834C643.692 10.4834 643.384 10.627 643.143 10.9141C642.901 11.2012 642.78 11.5658 642.78 12.0078V16H640.62V9H642.78V10.1074H642.808C643.323 9.25521 644.072 8.8291 645.057 8.8291C646.606 8.8291 647.381 9.79069 647.381 11.7139V16Z" fill="black"/>
    <defs>
    <linearGradient id="paint0_linear" x1="55.3508" y1="130.988" x2="55.3508" y2="265.244" gradientUnits="userSpaceOnUse">
    <stop stop-color="#0294FF" stop-opacity="0.45"/>
    <stop offset="1" stop-color="white" stop-opacity="0.01"/>
    </linearGradient>
    </defs>
</svg>
